<svg width="262" height="262" viewBox="0 0 262 262" fill="none" xmlns="http://www.w3.org/2000/svg">
<rect width="262" height="262" fill="#101115"/>
<path d="M86 176H116V206H86L56 176V146H86V176ZM206 176L176 206H146V176H176V146H206V176ZM143.154 118.846L176 131L143.154 143.154L131 176L118.846 143.154L86 131L118.846 118.846L131 86L143.154 118.846ZM116 86H86V116H56V86L86 56H116V86ZM206 86V116H176V86H146V56H176L206 86Z" fill="url(#paint0_linear_2_522)"/>
<path d="M86 176H116V206H86L56 176V146H86V176ZM206 176L176 206H146V176H176V146H206V176ZM143.154 118.846L176 131L143.154 143.154L131 176L118.846 143.154L86 131L118.846 118.846L131 86L143.154 118.846ZM116 86H86V116H56V86L86 56H116V86ZM206 86V116H176V86H146V56H176L206 86Z" fill="url(#paint1_radial_2_522)" fill-opacity="0.36" style="mix-blend-mode:overlay"/>
<defs>
<linearGradient id="paint0_linear_2_522" x1="131" y1="56" x2="131" y2="206" gradientUnits="userSpaceOnUse">
<stop stop-color="#3399FF"/>
<stop offset="1" stop-color="#1C4F9C"/>
</linearGradient>
<radialGradient id="paint1_radial_2_522" cx="0" cy="0" r="1" gradientUnits="userSpaceOnUse" gradientTransform="translate(177.5 56) rotate(121.799) scale(88.2454)">
<stop stop-color="white"/>
<stop offset="1" stop-color="#1C4F9C" stop-opacity="0"/>
</radialGradient>
</defs>
</svg>
